# xmcd
#
# Track frame offsets: 
#        187
#        24060
#        43440
#        67277
#
# Disc length: 1153 seconds
#
# Revision: 2
# Processed by: cddbd v1.5.2PL0 Copyright (c) Steve Scherf et al.
# Submitted via: ExactAudioCopy v1.0b3
#
DISCID=34047f04
DTITLE=聖飢魔Ⅱ - Brand New Song
DYEAR=1997
DGENRE=Rock
TTITLE0=Brand New Song
TTITLE1=虚空の迷宮
TTITLE2=Brand New Song オリジナル・カラオケ
TTITLE3=虚空の迷宮 オリジナル・カラオケ
EXTD=
EXTT0=
EXTT1=
EXTT2=
EXTT3=
PLAYORDER=
